<?xml version="1.0" encoding="UTF-8" standalone="no"?>
<svg
   width="208"
   height="96"
   viewBox="0 0 208 96"
   fill="none"
   version="1.1"
   id="svg8"
   sodipodi:docname="b4Update.svg"
   xml:space="preserve"
   inkscape:version="1.3.2 (091e20e, 2023-11-25, custom)"
   xmlns:inkscape="http://www.inkscape.org/namespaces/inkscape"
   xmlns:sodipodi="http://sodipodi.sourceforge.net/DTD/sodipodi-0.dtd"
   xmlns="http://www.w3.org/2000/svg"
   xmlns:svg="http://www.w3.org/2000/svg"><sodipodi:namedview
     id="namedview8"
     pagecolor="#505050"
     bordercolor="#ffffff"
     borderopacity="1"
     inkscape:showpageshadow="0"
     inkscape:pageopacity="0"
     inkscape:pagecheckerboard="1"
     inkscape:deskcolor="#505050"
     inkscape:zoom="1.6658654"
     inkscape:cx="-303.74603"
     inkscape:cy="19.509379"
     inkscape:window-width="1920"
     inkscape:window-height="1017"
     inkscape:window-x="-8"
     inkscape:window-y="-8"
     inkscape:window-maximized="1"
     inkscape:current-layer="g12" /><defs
     id="defs8"><clipPath
       id="clip0_3276_3503"><rect
         width="208"
         height="146"
         fill="white"
         id="rect8" /></clipPath><clipPath
       id="clip0_3276_3503-6"><rect
         width="208"
         height="146"
         fill="white"
         id="rect8-4" /></clipPath></defs><g
     style="fill:none"
     id="g12"
     transform="translate(-329.04428,-63.732311)"><path
       d="M 182.897,-12.733 H 25.1034 c -5.1495,0 -9.3241,8.4782741 -9.3241,18.9368487 V 153.32759 c 0,10.4587 4.1746,18.93713 9.3241,18.93713 H 182.897 c 5.149,0 9.324,-8.47843 9.324,-18.93713 V 6.2038487 C 192.221,-4.2547259 188.046,-12.733 182.897,-12.733 Z"
       fill="#ffffff"
       fill-opacity="0.05"
       id="path1-1"
       style="stroke-width:1.18174" /><path
       d="M 182.46265,-11.362333 H 24.820131 c -4.946774,0 -8.956939,8.5063644 -8.956939,18.9995147 V 161.15261 c 0,10.49421 4.010165,18.99961 8.956939,18.99961 H 182.46265 c 4.94629,0 8.95648,-8.5054 8.95648,-18.99961 V 7.6371817 c 0,-10.4931503 -4.01019,-18.9995147 -8.95648,-18.9995147 z"
       stroke="#ffffff"
       stroke-opacity="0.1"
       id="path2-6"
       style="stroke-width:1.16777" /><path
       d="m 175.31499,11.000148 c 0,-5.1537648 -4.2075,-9.331649 -9.39769,-9.331649 -5.19019,0 -9.39769,4.1778842 -9.39769,9.331649 0,5.153632 4.2075,9.331516 9.39769,9.331516 5.19019,0 9.39769,-4.177884 9.39769,-9.331516 z"
       fill="#ffffff"
       fill-opacity="0.2"
       id="path3-2"
       style="stroke-width:1.31025" /><path
       d="m 174.84512,10.999882 c 0,-4.8959025 -3.99707,-8.8649317 -8.92782,-8.8649317 -4.93062,0 -8.92782,3.9690292 -8.92782,8.8649317 0,4.896038 3.9972,8.865067 8.92782,8.865067 4.93075,0 8.92782,-3.969029 8.92782,-8.865067 z"
       stroke="#ffffff"
       stroke-opacity="0.1"
       id="path4-4"
       style="stroke-width:1.31025" /><path
       d="M 169.45522,26.702586 H 46.161338 c -1.42596,0 -2.58201,1.260194 -2.58201,2.814614 0,1.55442 1.15605,2.814614 2.58201,2.814614 H 169.45522 c 1.4256,0 2.5821,-1.260194 2.5821,-2.814614 0,-1.55442 -1.1565,-2.814614 -2.5821,-2.814614 z"
       fill="#ffffff"
       fill-opacity="0.2"
       id="path5-3"
       style="stroke-width:0.942974" /><path
       d="M 149.18994,13.336613 H 123.3693 c -1.42605,0 -2.5821,1.14795 -2.5821,2.56392 0,1.41597 1.15605,2.56392 2.5821,2.56392 h 25.82064 c 1.42605,0 2.5821,-1.14795 2.5821,-2.56392 0,-1.41597 -1.15605,-2.56392 -2.5821,-2.56392 z"
       fill="#ffffff"
       fill-opacity="0.2"
       id="path6-3"
       style="stroke-width:0.9" /><path
       d="m 149.07146,3.036469 h -10.32831 c -1.42596,0 -2.58201,1.14795 -2.58201,2.56392 0,1.41597 1.15605,2.56392 2.58201,2.56392 h 10.32831 c 1.42587,0 2.58236,-1.14795 2.58236,-2.56392 0,-1.41597 -1.15649,-2.56392 -2.58236,-2.56392 z"
       fill="#ffffff"
       fill-opacity="0.2"
       id="path7-5"
       style="stroke-width:0.9" /><path
       d="m 169.2759,48.0634 h -56.6621 c -1.5844,0 -2.8689,1.2755 -2.8689,2.8488 0,1.5733 1.2845,2.8488 2.8689,2.8488 h 56.6621 c 1.5845,0 2.869,-1.2755 2.869,-2.8488 0,-1.5733 -1.2845,-2.8488 -2.869,-2.8488 z"
       fill="#ffffff"
       fill-opacity="0.2"
       id="path8-5" /><path
       d="M 169.45522,36.702586 H 46.161338 c -1.42596,0 -2.58201,1.260194 -2.58201,2.814614 0,1.55442 1.15605,2.814614 2.58201,2.814614 H 169.45522 c 1.4256,0 2.5821,-1.260194 2.5821,-2.814614 0,-1.55442 -1.1565,-2.814614 -2.5821,-2.814614 z"
       fill="#ffffff"
       fill-opacity="0.2"
       id="path12"
       style="stroke-width:0.942974" /><path
       d="m 169.2759,58.0634 h -56.6621 c -1.5844,0 -2.8689,1.2755 -2.8689,2.8488 0,1.5733 1.2845,2.8488 2.8689,2.8488 h 56.6621 c 1.5845,0 2.869,-1.2755 2.869,-2.8488 0,-1.5733 -1.2845,-2.8488 -2.869,-2.8488 z"
       fill="#ffffff"
       fill-opacity="0.2"
       id="path13" /></g></svg>
