<?xml version="1.0" encoding="UTF-8" standalone="no"?>
<svg
   width="123"
   height="87"
   viewBox="0 0 123 87"
   fill="none"
   version="1.1"
   id="svg31"
   sodipodi:docname="exp4v2.svg"
   inkscape:version="1.3.2 (091e20e, 2023-11-25, custom)"
   xmlns:inkscape="http://www.inkscape.org/namespaces/inkscape"
   xmlns:sodipodi="http://sodipodi.sourceforge.net/DTD/sodipodi-0.dtd"
   xmlns="http://www.w3.org/2000/svg"
   xmlns:svg="http://www.w3.org/2000/svg">
  <sodipodi:namedview
     id="namedview31"
     pagecolor="#505050"
     bordercolor="#ffffff"
     borderopacity="1"
     inkscape:showpageshadow="0"
     inkscape:pageopacity="0"
     inkscape:pagecheckerboard="1"
     inkscape:deskcolor="#505050"
     inkscape:zoom="9.4367816"
     inkscape:cx="62.945189"
     inkscape:cy="43.711937"
     inkscape:window-width="1920"
     inkscape:window-height="1017"
     inkscape:window-x="-8"
     inkscape:window-y="-8"
     inkscape:window-maximized="1"
     inkscape:current-layer="svg31" />
  <path
     fill-rule="evenodd"
     clip-rule="evenodd"
     d="m 40.3836,4.99199 c -1.709,2.6534 -2.496,5.98141 -3.2605,9.19691 -0.5622,2.2937 -2.1587,10.1864 -2.3386,16.0553 -0.3448,0.075 -0.6971,0.15 -1.0569,0.2249 -1.4616,0.3148 -2.9907,0.7646 -4.4298,1.2817 -0.2848,0.105 -0.5622,0.2099 -0.832,0.3149 -0.2549,0.1049 -0.5097,0.2098 -0.7646,0.3148 -0.4497,0.2023 -0.8769,0.4047 -1.2592,0.6071 l -0.0225,0.0225 H 26.397 c -0.5396,0.3148 -2.1587,1.4616 -5.4867,5.7115 l -0.0225,0.0225 -0.0224,0.0225 C 17.7173,42.7917 13.962,48.3233 9.75706,55.2492 0.650063,70.2026 -0.159447,75.7343 0.0204468,78.6126 v 0.0224 c 0.0149917,0.15 0.0299835,0.2849 0.0449753,0.4048 C 0.470177,82.5027 3.10108,84.9537 7.17113,85.6508 9.8695,86.5278 13.22,87 16.9078,87 c 1.4391,0 2.9457,-0.09 4.4748,-0.2249 0.787,-0.0674 1.7089,-0.1574 2.7208,-0.2473 9.4443,-0.832 27.1861,-2.2487 27.366,-2.2711 l 0.742,-0.0675 0.6072,-0.4497 c 9.6916,-7.3981 10.1863,-8.7922 10.4337,-9.4668 l 1.1468,-3.1481 -3.3505,-0.2699 c -0.0899,0 -9.4893,-0.742 -25.0499,-2.8108 -0.5172,-0.0674 -1.2817,-0.0899 -2.2486,-0.0899 -1.754,0 -4.8571,0.1124 -8.2975,0.5172 0.2848,-0.105 0.5771,-0.1949 0.877,-0.2699 2.3386,-0.6745 4.3623,-2.2036 5.7115,-4.2724 2.6085,-4.07 4.0701,-7.2181 4.4748,-9.6242 0.09,-0.5621 0.3598,-2.2261 -0.6746,-8.0051 h 0.2024 c 0.787,0.0899 1.754,0.1799 2.8108,0.1799 6.7459,0 11.5356,-4.1825 14.6162,-12.7723 2.4285,-6.8359 5.1494,-11.1533 8.0726,-12.8398 1.0119,-0.5846 2.3386,-0.877 3.9351,-0.877 0.3598,0 0.7271,0.015 1.1019,0.045 0.9444,0.0675 1.7989,0.2249 2.496,0.3823 -0.922,1.0344 -1.5741,2.3386 -1.7989,3.7777 -0.3373,2.451 -0.8995,4.6772 -1.4167,5.869 -0.5621,1.2367 -0.8994,2.361 -1.1918,3.3504 -0.5172,1.7315 -0.832,2.6759 -1.7764,3.5304 -2.8108,2.5859 -4.9245,3.9126 -6.3187,3.9126 -0.3373,0 -0.6521,-0.0674 -1.1243,-0.2248 l -4.3849,-1.4841 1.0794,4.4973 c 0.0899,0.3148 0.877,3.193 4.6322,4.2049 h 0.0225 c 1.0119,0.2699 2.0462,0.4048 3.0581,0.4048 0.09,0 0.5847,0.0225 3.1257,0.1799 1.8663,0.1349 3.3055,1.619 3.3954,3.4629 0.5397,12.5924 -0.0225,16.1003 -0.2473,16.9547 -0.4947,1.1244 -4.2725,8.8147 -5.7791,11.4456 -0.4272,0.7646 -0.8994,1.5291 -1.4166,2.3386 L 58.36883,84.113028 72.188937,84.00706 72.1344,84.1442 c 0,-0.0225 0.1349,-2.0462 0.2699,-5.0369 3.7552,3.0581 6.421563,4.609922 6.466463,4.654922 l 1.78261,-0.03181 1.3942,0.09621 c 0.1349,-0.0675 3.106527,-0.357017 6.524427,-1.886017 2.0463,-0.9445 3.6878,-1.754 4.8346,-2.4286 1.3267,-0.742 3.7552,-2.1362 3.1481,-4.4973 C 96.1499,73.3732 90.236,64.0638 88.4146,61.2306 86.0086,57.4753 80.0497,48.3458 76.8341,44.6581 c -1.3717,-1.5516 -2.7658,-2.9008 -4.2499,-4.0926 1.619,-2.2036 2.8108,-4.4298 3.5753,-6.1163 1.7989,-3.8677 3.1031,-10.5911 2.1587,-13.7842 v -0.0449 l -0.0225,-0.0225 c 0,0 -0.0674,-0.2474 -0.2249,-0.6746 C 77.7336,19.001 77.3513,18.0791 76.969,17.2021 75.9346,14.841 74.518,11.648 72.2693,9.4443 66.288,3.6428 57.968,0.112432 50.0078,0 h -0.2249 c -4.1375,0 -7.2856,1.664 -9.3993,4.99199 z m 9.6017,-2.45102 c 7.6229,0.11243 15.3133,3.68777 20.5076,8.72473 1.8889,1.8439 3.1931,4.7896 4.1375,6.9483 0.4722,1.1018 0.832,2.0238 1.0344,2.5859 0.1349,0.3598 0.2024,0.5847 0.2024,0.5847 0.6746,2.2936 -0.2699,8.23 -2.0238,12.0077 -0.6971,1.5066 -2.3611,4.8571 -4.947,7.6679 2.0912,1.3267 4.0475,3.0132 6.0263,5.2843 5.082,5.8015 18.7987,27.8157 19.1585,29.2774 0.3598,1.4391 -13.4019,6.8808 -13.4019,6.8808 0,0 -5.037,-4.0251 -10.5686,-8.5673 -0.2474,5.5766 -0.5172,10.0514 -0.5172,10.0514 h -8.4999 c 0.5097,-0.7945 0.9969,-1.604 1.4616,-2.4285 1.6415,-2.8333 5.869,-11.4681 6.0039,-11.8504 0.8545,-2.8333 0.6296,-11.9403 0.3598,-17.9216 -0.1349,-3.1481 -2.6085,-5.6666 -5.7566,-5.8915 -1.5515,-0.0899 -2.9457,-0.1799 -3.3055,-0.1799 -0.7645,0 -1.574,-0.1124 -2.4285,-0.3148 -2.406,-0.6746 -2.8108,-2.3611 -2.8108,-2.3611 0.6071,0.2024 1.2368,0.3598 1.9563,0.3598 1.7989,0 4.1375,-0.9669 8.0502,-4.5647 2.2936,-2.1362 2.1362,-4.5873 3.5528,-7.7129 0.6521,-1.4391 1.2593,-3.9126 1.6415,-6.5435 0.3373,-2.2936 2.2712,-3.9352 4.4973,-3.9352 0.3298,0 0.6671,0.0375 1.0119,0.1125 -0.6521,-0.6521 -1.8664,-1.6415 -3.6203,-2.2487 -0.4497,-0.1574 -2.4735,-0.8095 -4.9245,-1.0119 -0.4198,-0.0299 -0.8545,-0.0449 -1.3043,-0.0449 -1.7539,0 -3.6203,0.2923 -5.2168,1.2142 -4.902,2.8333 -7.8703,10.5012 -9.197,14.189 -3.4404,9.6242 -8.3649,11.0858 -12.2101,11.0858 -1.4841,0 -2.7883,-0.2249 -3.8002,-0.2698 h -0.0899 c -0.967,0 -1.754,0.742 -1.8214,1.6639 -0.015,0.15 -0.0075,0.3074 0.0225,0.4723 0.4722,2.5184 1.1018,6.4311 0.8319,8.0951 -0.3822,2.3386 -2.1137,5.5541 -4.115,8.6573 -0.9894,1.529 -2.496,2.6758 -4.2499,3.193 -2.2711,0.6296 -4.4074,1.4841 -6.0938,2.586 -0.9445,0.5846 -5.1719,3.2605 -6.4986,5.9139 4.6547,-2.8333 15.8754,-3.7552 20.71,-3.7552 0.8545,0 1.5066,0.0224 1.9113,0.0899 15.808,2.0912 25.2073,2.8333 25.2073,2.8333 -0.4947,1.3492 -9.6017,8.2975 -9.6017,8.2975 0,0 -17.8092,1.4391 -27.3885,2.2711 -1.0118,0.09 -1.9338,0.1799 -2.7433,0.2474 -1.4691,0.1349 -2.8783,0.2024 -4.2274,0.2024 -3.5979,0 -6.7235,-0.4498 -9.12953,-1.2593 C 5.14735,82.7726 2.89871,81.4458 2.60638,78.7475 2.59139,78.6425 2.5764,78.5376 2.56141,78.4327 2.33655,74.9698 4.67514,68.5162 11.9383,56.5759 c 4.8795,-8.0277 8.4548,-13.0647 10.9284,-16.2352 0.0149,-0.015 0.0299,-0.03 0.0449,-0.045 3.373,-4.2949 4.7447,-5.0595 4.7447,-5.0595 0.2923,-0.1574 0.6521,-0.3373 1.0793,-0.5172 0.2099,-0.0899 0.4348,-0.1798 0.6746,-0.2698 0.2399,-0.1049 0.4947,-0.2024 0.7645,-0.2923 1.1693,-0.4273 2.6085,-0.877 4.1151,-1.2143 0.3298,-0.0749 0.6671,-0.1424 1.0119,-0.2024 h 0.0224 c 1.1469,-0.2248 1.9564,-1.1917 2.0013,-2.3385 0.1574,-5.3968 1.664,-13.0647 2.2712,-15.6281 C 41.0807,8.63479 42.5648,2.54097 49.7829,2.54097 Z"
     fill="#00042d"
     id="path1"
     sodipodi:nodetypes="ccccccccccccccccccscccccccccsccccccsccsccccccscccccsccccccccccccccccccccccccccsccccccccccccccccccsccscccscccsccscscccccccscccccscccccccccccccccsc" />
  <path
     d="M2.56217 78.4318C2.57716 78.5367 2.59216 78.6417 2.60715 78.7466C2.89947 81.445 5.14811 82.7717 7.77902 83.1764C11.0845 84.2783 15.7842 84.728 21.136 84.2333C21.9455 84.1658 22.8674 84.0759 23.8793 83.986C33.4585 83.154 51.2678 81.7148 51.2678 81.7148C51.2678 81.7148 60.3748 76.0033 60.8695 74.6541C60.8695 74.6541 59.5428 74.3618 57.0468 73.912C55.3603 73.5972 53.1341 73.215 50.3908 72.7652C46.4557 72.1131 41.4862 71.3486 35.6622 70.584C33.0763 70.2243 18.5051 70.9213 13.0409 74.2493C14.3676 71.5959 18.595 68.92 19.5394 68.3129C21.2259 67.2336 23.3621 66.3791 25.6333 65.7495C27.3872 65.2323 28.8938 64.0855 29.8832 62.5564C31.8845 59.4533 33.6159 56.2377 33.9982 53.8991C34.268 52.2351 33.6384 48.3225 33.1662 45.804C33.1362 45.6391 33.1287 45.4817 33.1437 45.3318C33.2337 44.3873 34.0432 43.6228 35.0551 43.6678C38.6979 43.8477 46.2983 46.1863 51.0654 32.8518C52.3921 29.164 55.3603 21.4962 60.2623 18.6629C62.2636 17.5161 64.6697 17.3362 66.7834 17.4936C69.2344 17.696 71.2582 18.3481 71.7079 18.5055C73.4619 19.1126 74.6761 20.102 75.3283 20.7541C74.9835 20.6792 74.6462 20.6417 74.3164 20.6417C72.0902 20.6417 70.1564 22.2832 69.8191 24.5768C69.4368 27.2077 68.8297 29.6812 68.1776 31.1203C66.7609 34.246 66.9183 36.697 64.6247 38.8332C59.1605 43.8702 56.732 43.7577 54.6183 43.0382C54.6183 43.0382 55.023 44.7246 57.4291 45.3992C58.2835 45.6016 59.093 45.714 59.8576 45.714C60.2174 45.714 61.6115 45.804 63.1631 45.8939C66.3112 46.1188 68.7847 48.6373 68.9196 51.7854C69.1895 57.7668 69.4143 66.8738 68.5598 69.7071C68.4249 70.0893 64.1975 78.7241 62.556 81.5574C62.0912 82.3819 61.604 83.1914 61.0943 83.986H69.5942C69.5942 83.986 69.8641 79.5112 70.1114 73.9345C75.6431 78.4768 80.68 82.5018 80.68 82.5018C80.68 82.5018 94.4417 77.0601 94.0819 75.621C93.7222 74.1594 80.0054 52.1452 74.9235 46.3437C72.9447 44.0725 70.9884 42.3861 68.8971 41.0594C71.4831 38.2486 73.1471 34.8981 73.8441 33.3915C75.5981 29.6138 76.5425 23.6773 75.8679 21.3837C75.8679 21.3837 75.8005 21.1589 75.6655 20.7991C75.4632 20.2369 75.1034 19.315 74.6312 18.2131C73.6867 16.0544 72.3825 13.1087 70.4937 11.2648C65.2993 6.22787 57.609 2.65253 49.986 2.5401C42.588 2.42766 41.0814 8.56646 39.5973 14.7727C38.9902 17.3362 37.4836 25.004 37.3262 30.4008C37.2812 31.5476 36.4717 32.5145 35.3249 32.7394H35.3024C34.9576 32.7993 34.6203 32.8668 34.2905 32.9417C32.7839 33.279 31.3448 33.7288 30.1755 34.156C29.9057 34.246 29.6508 34.3434 29.411 34.4483C29.1711 34.5383 28.9463 34.6282 28.7364 34.7182C28.3091 34.8981 27.9494 35.078 27.657 35.2354C27.657 35.2354 26.2854 35.9999 22.9124 40.2948C22.8974 40.3098 22.8824 40.3248 22.8674 40.3398C20.3939 43.5104 16.8186 48.5473 11.939 56.575C4.6759 68.5153 2.3373 74.9689 2.56217 78.4318Z"
     fill="url(#paint0_linear_3307_608)"
     id="path2" />
  <path
     style="mix-blend-mode:multiply"
     d="M19.5389 68.3356C21.2254 67.2338 23.3616 66.3793 25.6327 65.7497C27.3866 65.2325 28.8932 64.0857 29.8826 62.5566C31.8839 59.4535 33.6154 56.238 33.9976 53.8994C34.2675 52.2354 33.6379 48.3227 33.1657 45.8042C33.1357 45.6393 33.1282 45.4819 33.1432 45.332C32.5135 47.3783 32.536 50.4365 31.8839 52.3028C28.1512 63.5011 20.2135 67.5261 19.5389 68.3356Z"
     fill="url(#paint1_linear_3307_608)"
     id="path3" />
  <path
     style="mix-blend-mode:multiply"
     d="M2.56177 78.4333C2.57676 78.5383 2.59175 78.6432 2.60674 78.7481C2.89907 81.4465 5.14771 82.7732 7.77862 83.178C11.0841 84.2798 15.7838 84.7295 21.1356 84.2348C21.9451 84.1674 22.867 84.0774 23.8789 83.9875C33.4581 83.1555 51.2674 81.7163 51.2674 81.7163C51.2674 81.7163 54.8202 76.9042 57.0464 73.9135C55.3599 73.5987 53.1338 73.2165 50.3904 72.7667C48.3217 75.69 45.241 77.7812 38.7649 78.6582C29.3431 79.9399 22.3723 81.2891 14.0973 80.4346C9.68996 79.9849 6.45192 77.9836 6.78922 75.2402C7.89105 65.5486 17.7851 47.402 22.867 40.3413C20.3935 43.5119 16.8182 48.5489 11.9386 56.5765C4.6755 68.5168 2.3369 74.9704 2.56177 78.4333Z"
     fill="url(#paint2_linear_3307_608)"
     id="path4" />
  <path
     d="M77.9588 84.2555H33.8179C33.2333 84.2555 32.761 83.7833 32.761 83.1987V82.5466C32.761 81.9619 33.2333 81.5122 33.8179 81.5122H77.9588C78.5434 81.5122 79.0156 81.9619 79.0156 82.5466V83.1987C79.0156 83.7833 78.5434 84.2555 77.9588 84.2555Z"
     fill="white"
     id="path5" />
  <path
     d="M68.6264 84.2555H23.1364C22.7316 84.2555 22.3943 83.9182 22.3943 83.5135V82.8839C22.3943 82.1193 23.024 81.5122 23.7885 81.5122H68.6264C68.6414 81.5122 68.6489 81.5122 68.6489 81.5122V84.2331C68.6489 84.2481 68.6414 84.2555 68.6264 84.2555Z"
     fill="white"
     id="path6" />
  <path
     d="M68.6264 84.2555H23.1364C22.7316 84.2555 22.3943 83.9182 22.3943 83.5135V82.8839C22.3943 82.1193 23.024 81.5122 23.7885 81.5122H68.6264C68.6414 81.5122 68.6489 81.5122 68.6489 81.5122V84.2331C68.6489 84.2481 68.6414 84.2555 68.6264 84.2555Z"
     fill="white"
     id="path7" />
  <path
     d="M102.761 84.2564H50.772C49.7151 84.2564 48.9956 83.1546 49.4228 82.1877L64.7586 46.749C65.0059 46.2094 65.5231 45.8721 66.1302 45.8721H118.119C119.176 45.8721 119.895 46.9514 119.468 47.9408L104.132 83.3569C103.885 83.8966 103.368 84.2564 102.761 84.2564Z"
     fill="url(#paint3_linear_3307_608)"
     id="path8" />
  <path
     d="M102.761 84.2564H50.772C49.7151 84.2564 48.9956 83.1546 49.4228 82.1877L64.7586 46.749C65.0059 46.2094 65.5231 45.8721 66.1302 45.8721H118.119C119.176 45.8721 119.895 46.9514 119.468 47.9408L104.132 83.3569C103.885 83.8966 103.368 84.2564 102.761 84.2564Z"
     fill="white"
     id="path9" />
  <path
     d="M105.302 84.2564H53.3135C52.2567 84.2564 51.5371 83.1546 51.9643 82.1877L67.3001 46.749C67.5474 46.2094 68.0646 45.8721 68.6717 45.8721H120.66C121.717 45.8721 122.437 46.9514 122.01 47.9408L106.674 83.3569C106.426 83.8966 105.909 84.2564 105.302 84.2564Z"
     fill="url(#paint4_linear_3307_608)"
     id="path10" />
  <path
     style="mix-blend-mode:multiply"
     d="M54.6181 43.0391C54.6181 43.0391 55.8774 45.4226 58.8905 44.8155C64.9619 43.6237 68.8071 39.2389 70.8758 33.7297C72.1575 30.3342 72.6073 27.2761 73.057 25.0049C73.5517 22.3515 75.3281 20.755 75.3281 20.755C74.9833 20.6801 74.646 20.6426 74.3162 20.6426C72.0901 20.6426 70.1562 22.2841 69.8189 24.5777C69.4367 27.2086 68.8295 29.6821 68.1774 31.1212C66.7608 34.2469 66.9182 36.6979 64.6246 38.8341C59.1604 43.8711 56.7318 43.7586 54.6181 43.0391Z"
     fill="url(#paint5_linear_3307_608)"
     id="path11" />
  <path
     style="mix-blend-mode:multiply"
     d="M35.0548 43.668C38.6977 43.8479 46.2981 46.1864 51.0652 32.852C52.3919 29.1642 55.3601 21.4963 60.2621 18.6631C62.2634 17.5162 64.6695 17.3364 66.7832 17.4938C53.4937 14.9303 50.8628 24.7344 45.511 33.9988C41.1487 41.5542 36.6964 42.4537 35.0548 43.668Z"
     fill="url(#paint6_linear_3307_608)"
     id="path12" />
  <path
     d="M42.3623 54.3722C42.5197 51.5838 42.6546 48.7281 42.6321 46.9966C42.6321 46.7493 42.812 46.5469 43.0593 46.5469C43.3067 46.5469 43.5091 46.7268 43.5091 46.9741C43.5316 48.7505 43.3741 51.6288 43.2392 54.4171C43.1043 56.8457 42.9919 59.3866 42.9919 61.0281C42.9919 61.253 42.7895 61.4554 42.5421 61.4554C42.2948 61.4554 42.1149 61.253 42.1149 61.0281C42.1149 59.3641 42.2273 56.9356 42.3623 54.3722Z"
     fill="url(#paint7_linear_3307_608)"
     id="path13" />
  <path
     d="M53.9877 47.8521C53.9877 47.6047 54.1676 47.4023 54.415 47.4023C54.6623 47.4023 54.8647 47.5822 54.8647 47.8296C54.9097 50.6629 54.7748 53.8335 54.6398 56.9141C54.5724 58.2858 54.5049 59.6125 54.4599 60.8717C54.4599 61.1191 54.2576 61.299 54.0327 61.299C54.0327 61.299 54.0252 61.299 54.0102 61.299C53.7854 61.299 53.583 61.0741 53.583 60.8492C53.628 59.5675 53.6954 58.2408 53.7629 56.8691C53.8978 53.811 54.0327 50.6629 53.9877 47.8521Z"
     fill="url(#paint8_linear_3307_608)"
     id="path14" />
  <defs
     id="defs31">
    <linearGradient
       id="paint0_linear_3307_608"
       x1="99.3453"
       y1="71.3589"
       x2="82.6868"
       y2="-8.34066"
       gradientUnits="userSpaceOnUse">
      <stop
         stop-color="#FF00C1"
         id="stop14" />
      <stop
         offset="1"
         stop-color="#F4AC24"
         id="stop15" />
    </linearGradient>
    <linearGradient
       id="paint1_linear_3307_608"
       x1="44.9166"
       y1="70.7979"
       x2="46.0521"
       y2="44.4503"
       gradientUnits="userSpaceOnUse">
      <stop
         stop-color="#F4D63B"
         stop-opacity="0"
         id="stop16" />
      <stop
         offset="1"
         stop-color="#5C1CB2"
         id="stop17" />
    </linearGradient>
    <linearGradient
       id="paint2_linear_3307_608"
       x1="1.7327"
       y1="52.9231"
       x2="22.1695"
       y2="115.868"
       gradientUnits="userSpaceOnUse">
      <stop
         stop-color="#F4D63B"
         stop-opacity="0"
         id="stop18" />
      <stop
         offset="1"
         stop-color="#5C1CB2"
         id="stop19" />
    </linearGradient>
    <linearGradient
       id="paint3_linear_3307_608"
       x1="74.9737"
       y1="41.9203"
       x2="64.5061"
       y2="82.9535"
       gradientUnits="userSpaceOnUse">
      <stop
         stop-color="#A76DFC"
         id="stop20" />
      <stop
         offset="1"
         stop-color="#5C1CB2"
         id="stop21" />
    </linearGradient>
    <linearGradient
       id="paint4_linear_3307_608"
       x1="77.5157"
       y1="41.9203"
       x2="67.048"
       y2="82.9535"
       gradientUnits="userSpaceOnUse">
      <stop
         stop-color="#A76DFC"
         id="stop22" />
      <stop
         offset="1"
         stop-color="#5C1CB2"
         id="stop23" />
    </linearGradient>
    <linearGradient
       id="paint5_linear_3307_608"
       x1="92.7753"
       y1="51.214"
       x2="72.7462"
       y2="6.05384"
       gradientUnits="userSpaceOnUse">
      <stop
         stop-color="#F4D63B"
         stop-opacity="0"
         id="stop24" />
      <stop
         offset="1"
         stop-color="#5C1CB2"
         id="stop25" />
    </linearGradient>
    <linearGradient
       id="paint6_linear_3307_608"
       x1="42.0214"
       y1="6.14936"
       x2="32.6259"
       y2="47.8905"
       gradientUnits="userSpaceOnUse">
      <stop
         stop-color="#F4D63B"
         stop-opacity="0"
         id="stop26" />
      <stop
         offset="1"
         stop-color="#5C1CB2"
         id="stop27" />
    </linearGradient>
    <linearGradient
       id="paint7_linear_3307_608"
       x1="-37.2792"
       y1="48.6856"
       x2="-36.1156"
       y2="67.1863"
       gradientUnits="userSpaceOnUse">
      <stop
         stop-color="#F4AC24"
         id="stop28" />
      <stop
         offset="1"
         stop-color="#FF00C1"
         id="stop29" />
    </linearGradient>
    <linearGradient
       id="paint8_linear_3307_608"
       x1="-21.9639"
       y1="47.7214"
       x2="-20.8012"
       y2="66.2118"
       gradientUnits="userSpaceOnUse">
      <stop
         stop-color="#F4AC24"
         id="stop30" />
      <stop
         offset="1"
         stop-color="#FF00C1"
         id="stop31" />
    </linearGradient>
  </defs>
  <path
     style="fill:#000042;stroke-width:0.105968"
     d="m 56.057247,40.74051 c -0.23313,-0.04788 -1.451228,-0.437668 -2.706884,-0.866188 L 51.067351,39.095193 51.7293,37.827832 c 0.636274,-1.218204 1.004976,-2.097252 2.532258,-6.037333 1.830026,-4.721098 4.118441,-8.422205 6.259491,-10.123619 1.486595,-1.181341 2.774199,-1.586197 5.042388,-1.585455 1.136109,3.72e-4 3.21322,0.232382 3.35566,0.374822 0.0272,0.0272 -0.04885,0.156566 -0.168998,0.287472 -0.79389,0.864942 -1.29894,2.17812 -1.663765,4.325953 -0.373339,2.197957 -0.781118,3.710907 -1.47515,5.473145 -0.316168,0.80279 -0.753969,2.055691 -0.972894,2.784223 -0.454579,1.512748 -0.860962,2.475414 -1.273049,3.015688 -0.707059,0.927003 -3.619758,3.217442 -4.920767,3.869508 -0.62574,0.313623 -1.813561,0.697077 -1.942077,0.626945 -0.0117,-0.0064 -0.212019,-0.05079 -0.44515,-0.09867 z"
     id="path31" />
  <path
     style="fill:#000000;stroke-width:0.105968"
     d="m 50.070037,69.72126 c -2.24388,-0.256444 -6.39254,-0.764911 -9.219245,-1.129927 -5.121147,-0.661302 -5.14834,-0.66361 -7.62972,-0.647518 -2.182762,0.01415 -3.487982,0.07813 -6.252132,0.30646 l -0.688794,0.0569 0.582826,-0.215839 c 1.784103,-0.66071 3.4129,-1.824502 4.555974,-3.25529 1.995822,-2.498171 4.636424,-7.829996 5.097484,-10.292687 0.24078,-1.286094 -0.0092,-4.918992 -0.530341,-7.708777 l -0.09202,-0.492555 0.756376,0.07695 c 1.169949,0.119022 3.530952,0.09161 4.412282,-0.05122 3.919642,-0.635246 7.035811,-2.76361 9.446132,-6.45177 0.444343,-0.679913 0.514121,-0.745434 0.564264,-0.529842 0.798279,3.43224 1.159315,4.749027 1.45857,5.319753 0.522889,0.997235 1.641557,2.059174 2.730791,2.592308 1.369923,0.670519 2.235651,0.844316 5.08648,1.021119 2.673964,0.165835 3.359586,0.236592 3.432281,0.354215 0.02543,0.04115 -2.037814,4.890415 -4.584987,10.776155 -3.793211,8.764957 -4.668789,10.704646 -4.838832,10.719588 -0.114185,0.01003 -2.043511,-0.191575 -4.28739,-0.448018 z m -7.187699,-8.38202 c 0.16735,-0.151449 0.193836,-0.350242 0.19414,-1.457065 1.94e-4,-0.704928 0.07246,-2.677555 0.160599,-4.383614 0.2493,-4.825764 0.355993,-8.534316 0.251238,-8.732858 -0.164179,-0.311167 -0.534287,-0.354778 -0.750008,-0.08837 -0.165198,0.204011 -0.192022,0.446948 -0.192022,1.739071 0,0.826064 -0.07264,2.88319 -0.161419,4.571391 -0.309929,5.893415 -0.359891,8.023269 -0.19443,8.288398 0.17627,0.282448 0.424478,0.305067 0.691902,0.06305 z M 54.38871,61.170219 c 0.13043,-0.163157 0.303788,-3.536204 0.471784,-9.179552 L 54.98786,47.71215 54.742544,47.513505 c -0.293772,-0.237882 -0.334844,-0.241364 -0.595837,-0.05052 -0.152763,0.111703 -0.20136,0.274548 -0.197648,0.662302 0.01069,1.116021 -0.172403,7.338526 -0.29116,9.895433 -0.06911,1.487886 -0.09308,2.835008 -0.05327,2.993605 0.05765,0.2297 0.13399,0.288357 0.375284,0.288357 0.1666,0 0.350561,-0.05961 0.408801,-0.132461 z"
     id="path32" />
  <path
     style="fill:#000000;stroke-width:0.105968"
     d="m 50.546894,69.722913 c -1.690195,-0.196008 -5.576583,-0.672017 -8.636419,-1.057797 -3.886292,-0.48998 -6.090409,-0.719196 -7.311815,-0.760387 -1.510036,-0.05093 -5.112865,0.07143 -7.152862,0.242917 l -0.63581,0.05345 0.613103,-0.273259 c 1.697876,-0.756743 3.283633,-2.032939 4.402136,-3.542783 1.678802,-2.266181 3.895977,-6.698314 4.572997,-9.141422 0.365915,-1.320449 0.243939,-4.953045 -0.262675,-7.822802 -0.08746,-0.495402 -0.159076,-0.926119 -0.159156,-0.957149 -7.9e-5,-0.03103 0.440949,-0.01709 0.980063,0.03098 1.247176,0.111198 3.711204,0.0066 4.742082,-0.201224 1.506138,-0.303695 3.367936,-1.068502 4.556639,-1.871818 1.489658,-1.0067 3.001349,-2.557816 4.177538,-4.286487 0.286897,-0.421659 0.533029,-0.75501 0.546962,-0.74078 0.01393,0.01423 0.291215,1.074959 0.616183,2.357176 0.334837,1.32116 0.726991,2.606796 0.905049,2.967113 0.378532,0.765994 1.484829,1.892834 2.390687,2.435079 1.298037,0.777003 2.404295,1.003043 6.241495,1.275316 1.276367,0.09057 2.381266,0.198806 2.455331,0.240533 0.09874,0.05563 -0.635684,1.870809 -2.753264,6.804857 -3.220471,7.503829 -5.259766,12.172279 -5.959786,13.643423 l -0.466417,0.980207 -0.394489,-0.0094 c -0.21697,-0.0052 -1.777377,-0.169751 -3.467572,-0.365758 z m -7.598797,-8.340757 c 0.06042,-0.07285 0.139194,-0.847747 0.17505,-1.721985 0.03585,-0.874239 0.135887,-3.210841 0.222293,-5.192449 0.0864,-1.981608 0.168449,-4.546007 0.182322,-5.698666 0.02664,-2.213352 0.0097,-2.295938 -0.470558,-2.30032 -0.419838,-0.0038 -0.485596,0.243729 -0.554453,2.087369 -0.03654,0.978369 -0.140484,3.424011 -0.230986,5.43476 -0.187593,4.167862 -0.237452,7.06735 -0.126187,7.338307 0.08958,0.218159 0.63563,0.25421 0.802519,0.05298 z M 54.45664,61.117235 c 0.09335,-0.308131 0.265688,-3.486476 0.377784,-6.967418 0.05818,-1.80676 0.134485,-4.006809 0.169563,-4.888997 0.06315,-1.588131 0.06136,-1.605669 -0.180347,-1.77497 -0.315627,-0.221074 -0.549041,-0.216555 -0.746517,0.01445 -0.13065,0.152835 -0.181528,0.98669 -0.289339,4.742082 -0.07195,2.506151 -0.157842,5.49405 -0.190877,6.639776 -0.03303,1.145725 -0.03093,2.159047 0.0047,2.251827 0.09334,0.24323 0.780377,0.229768 0.855065,-0.01675 z"
     id="path33" />
</svg>
